<?xml version="1.0" encoding="utf-8"?>
<!-- Generator: Adobe Illustrator 16.0.3, SVG Export Plug-In . SVG Version: 6.00 Build 0)  -->
<!DOCTYPE svg PUBLIC "-//W3C//DTD SVG 1.1//EN" "http://www.w3.org/Graphics/SVG/1.1/DTD/svg11.dtd">
<svg version="1.1" id="Layer_1" xmlns="http://www.w3.org/2000/svg" xmlns:xlink="http://www.w3.org/1999/xlink" x="0px" y="0px"
	 width="487.559px" height="204.094px" viewBox="0 0 487.559 204.094" enable-background="new 0 0 487.559 204.094"
	 xml:space="preserve">
<g>
	<defs>
		<path id="SVGID_1_" d="M79.277,186.923c0.006-0.084,0.025-0.161,0.025-0.247c0-1.572-1.082-2.881-2.538-3.253l0.107-14.156
			c0.758-0.115,1.449-0.413,2.034-0.854l22.084,21.288c-0.175,0.286-0.309,0.601-0.393,0.936
			C93.216,190.274,86.075,188.996,79.277,186.923 M106.491,189.378l16.191-22.131c0.616,0.316,1.307,0.513,2.049,0.513
			c0.55,0,1.069-0.111,1.557-0.292l7.084,12.627c-1.707,1.202-2.829,3.179-2.829,5.427c0,0.476,0.055,0.938,0.15,1.386
			c-7.483,2.286-15.389,3.585-23.563,3.783C107.016,190.202,106.791,189.76,106.491,189.378 M50.178,171.599
			c0.702-1.041,1.11-2.292,1.126-3.636l20.546-2.006c0.443,1.705,1.848,3.011,3.61,3.302l-0.107,14.107
			c-0.917,0.158-1.707,0.68-2.21,1.421C64.801,181.549,57.074,177.08,50.178,171.599 M79.891,167.402
			c0.512-0.73,0.817-1.618,0.817-2.578c0-0.49-0.097-0.951-0.241-1.394l24.428-12.583c0.421,0.479,0.972,0.832,1.603,1.01
			l-2.939,36.255c-0.59,0.053-1.14,0.241-1.603,0.56L79.891,167.402z M155.647,150.756c0.886-0.428,1.552-1.229,1.797-2.203
			l19.344,0.682c0.132,1.014,0.581,1.928,1.272,2.612c-4.477,6.617-9.842,12.579-15.899,17.754c-0.57-0.442-1.277-0.717-2.054-0.717
			c-0.021,0-0.04,0.006-0.062,0.006L155.647,150.756z M86.826,145.896c5.364,2.201,11.209,3.454,17.332,3.562
			c0.013,0.054,0.032,0.104,0.048,0.157l-24.375,12.557c-0.426-0.582-0.987-1.051-1.636-1.373l3.669-12.681
			c0.219,0.026,0.435,0.064,0.661,0.064C84.315,148.183,85.893,147.275,86.826,145.896 M104.963,188.285l2.944-36.335
			c1.461-0.218,2.607-1.361,2.825-2.823c8.741-1.039,16.768-4.428,23.433-9.523c0.268,0.237,0.548,0.459,0.853,0.649l-8.983,18.701
			c-0.415-0.127-0.848-0.216-1.304-0.216c-2.491,0-4.511,2.021-4.511,4.513c0,1.239,0.501,2.36,1.312,3.176l-16.131,22.048
			C105.26,188.402,105.115,188.339,104.963,188.285 M143.005,139.363l8.204,6.824c-0.241,0.465-0.391,0.985-0.391,1.545
			c0,1.861,1.509,3.369,3.369,3.369c0.031,0,0.059-0.008,0.089-0.009l4.397,18.122c-1.142,0.54-1.935,1.693-1.935,3.039
			c0,0.503,0.118,0.975,0.316,1.405c-4.429,3.253-9.166,6.108-14.167,8.501c-1.157-1.955-3.264-3.282-5.701-3.282
			c-0.917,0-1.79,0.185-2.586,0.521l-7.083-12.627c1.043-0.826,1.725-2.089,1.725-3.521c0-1.531-0.766-2.877-1.931-3.693
			l8.981-18.698c0.675,0.239,1.391,0.394,2.148,0.394C140.222,141.253,141.835,140.53,143.005,139.363 M26.538,142.845
			c0.709-0.618,1.165-1.515,1.165-2.528c0-0.396-0.081-0.771-0.206-1.124l13.986-9.087c0.544,0.569,1.262,0.964,2.072,1.107
			l0.367,30.104c-1.271,0.145-2.425,0.639-3.375,1.396C35.013,156.793,30.289,150.111,26.538,142.845 M45.333,161.311l-0.367-30.106
			c1.032-0.208,1.906-0.841,2.449-1.701l30.216,11.847c-0.175,0.521-0.292,1.068-0.292,1.648c0,2.143,1.301,3.981,3.156,4.771
			l-3.649,12.608c-0.213-0.03-0.425-0.065-0.647-0.065c-2.399,0-4.341,1.876-4.484,4.239l-20.537,2.005
			C50.605,163.74,48.242,161.603,45.333,161.311 M143.878,138.254c0.64-1.001,1.021-2.185,1.021-3.46
			c0-0.771-0.157-1.499-0.405-2.183l18.995-9.261c0.616,0.785,1.563,1.299,2.638,1.299c0.337,0,0.656-0.065,0.962-0.156
			l11.354,20.645c-0.831,0.661-1.427,1.598-1.63,2.684l-19.317-0.68c-0.279-1.578-1.65-2.778-3.309-2.778
			c-0.788,0-1.504,0.282-2.078,0.735L143.878,138.254z M17.724,115.591c1.101-0.321,2.051-0.97,2.747-1.844l20.209,12.401
			c-0.158,0.418-0.256,0.866-0.256,1.34c0,0.51,0.105,0.992,0.286,1.436l-13.949,9.063c-0.614-0.639-1.472-1.04-2.427-1.04
			c-0.193,0-0.381,0.026-0.566,0.057C20.892,130.254,18.839,123.074,17.724,115.591 M47.934,128.188c0.042-0.227,0.07-0.46,0.07-0.7
			c0-1.1-0.476-2.083-1.226-2.774l10.502-17.188c0.015,0.002,0.029,0.002,0.045,0.004c1.604,12.518,8.029,23.547,17.362,31.148
			L47.934,128.188z M168.327,123.813c0.711-0.618,1.17-1.518,1.17-2.534c0-0.499-0.115-0.969-0.311-1.394l19.985-14.854
			c1.006,1.063,2.356,1.775,3.875,1.991c-0.676,13.457-4.386,26.128-10.453,37.347c-0.43-0.138-0.879-0.23-1.353-0.23
			c-0.555,0-1.08,0.115-1.571,0.298L168.327,123.813z M143.248,130.517c5.774-7.558,9.36-16.868,9.808-26.984
			c0.144-0.037,0.289-0.076,0.425-0.133l10.244,15.522c-0.596,0.607-0.966,1.438-0.966,2.357c0,0.279,0.043,0.547,0.107,0.807
			l-18.985,9.254C143.695,131.045,143.478,130.775,143.248,130.517 M168.853,84.212l19.286,13.17
			c-0.493,0.927-0.798,1.97-0.798,3.093c0,1.26,0.37,2.426,0.98,3.43l-19.981,14.853c-0.594-0.521-1.362-0.846-2.213-0.846
			c-0.432,0-0.841,0.089-1.221,0.237l-10.248-15.528c0.626-0.634,1.015-1.502,1.015-2.464c0-0.922-0.364-1.754-0.945-2.378
			l8.896-12.435c0.567,0.259,1.194,0.41,1.857,0.41C166.829,85.754,168.026,85.15,168.853,84.212 M41.402,83.181l13.791,16.287
			c-1.102,0.823-1.826,2.126-1.826,3.607c0,1.772,1.031,3.291,2.517,4.029l-10.302,16.859c-0.424-0.164-0.883-0.264-1.368-0.264
			c-1.11,0-2.099,0.486-2.793,1.247l-20.206-12.398c0.292-0.672,0.46-1.409,0.46-2.188c0-1.48-0.594-2.818-1.551-3.805
			l18.039-23.347c0.478,0.25,1.015,0.404,1.593,0.404C40.355,83.613,40.91,83.447,41.402,83.181 M24.155,73.949l12.228,5.415
			c-0.059,0.251-0.096,0.51-0.096,0.78c0,0.826,0.301,1.574,0.782,2.169l-18.058,23.375c-0.656-0.394-1.4-0.645-2.197-0.734
			c-0.022-0.804-0.061-1.603-0.061-2.411c0-9.474,1.519-18.596,4.296-27.157c0.109,0.01,0.213,0.032,0.325,0.032
			C22.53,75.418,23.548,74.836,24.155,73.949 M42.48,82.269c0.46-0.588,0.745-1.32,0.745-2.125c0-0.2-0.026-0.395-0.059-0.586
			l21.481-7.537c0.296,0.593,0.666,1.141,1.118,1.617c-5.07,7.15-8.242,15.731-8.764,25.015c-0.179,0.036-0.347,0.098-0.518,0.154
			L42.48,82.269z M152.88,96.727c-0.925-9.587-4.679-18.354-10.412-25.468c0.136-0.158,0.28-0.309,0.397-0.482l18.344,9.085
			c-0.142,0.439-0.238,0.897-0.238,1.381c0,1.319,0.575,2.494,1.477,3.319l-8.867,12.393
			C153.358,96.857,153.125,96.777,152.88,96.727 M108.332,54.83c9.535,0.673,18.283,4.219,25.39,9.779
			c-0.598,0.882-0.947,1.945-0.947,3.089c0,3.047,2.469,5.515,5.514,5.515c1.171,0,2.25-0.369,3.143-0.991
			c5.501,6.857,9.116,15.287,10.033,24.504c-1.596,0.326-2.797,1.738-2.797,3.431c0,1.753,1.293,3.193,2.974,3.448
			c-0.457,9.724-3.904,18.673-9.438,25.958c-1.061-0.766-2.356-1.229-3.764-1.229c-3.568,0-6.46,2.892-6.46,6.46
			c0,1.41,0.463,2.704,1.23,3.766c-6.429,4.888-14.158,8.143-22.569,9.158c-0.401-1.415-1.686-2.456-3.228-2.456
			c-1.661,0-3.033,1.202-3.311,2.783c-5.888-0.114-11.51-1.318-16.675-3.428c0.169-0.513,0.283-1.051,0.283-1.619
			c0-2.864-2.321-5.186-5.185-5.186c-1.638,0-3.082,0.774-4.032,1.96c-10.583-7.333-17.995-18.923-19.75-32.273
			c2.076-0.404,3.645-2.229,3.645-4.424c0-2.306-1.737-4.186-3.97-4.457c0.524-8.918,3.566-17.166,8.419-24.054
			c1.064,0.725,2.348,1.15,3.733,1.15c3.668,0,6.643-2.974,6.643-6.642c0-1.538-0.543-2.934-1.419-4.06
			c7.037-5.665,15.744-9.329,25.257-10.133c0.42,1.621,1.88,2.825,3.633,2.825C106.455,57.704,107.93,56.477,108.332,54.83
			 M169.622,83.027c0.237-0.547,0.37-1.149,0.37-1.784c0-2.067-1.399-3.791-3.295-4.323l2.28-29.836
			c1.312-0.05,2.527-0.466,3.537-1.169c11.142,13.272,18.456,29.854,20.222,48.042c-1.525,0.291-2.845,1.115-3.808,2.255
			L169.622,83.027z M143.477,69.504c0.198-0.568,0.328-1.17,0.328-1.806c0-1.106-0.334-2.131-0.895-2.994l21.427-19.289
			c0.897,0.797,1.999,1.358,3.23,1.577l-2.273,29.76c-1.422,0.059-2.668,0.77-3.453,1.848L143.477,69.504z M24.683,72.64
			c0.035-0.193,0.061-0.388,0.061-0.59c0-1.151-0.579-2.163-1.458-2.771c3.635-8.893,8.683-17.057,14.861-24.227
			c0.843,0.625,1.831,1.049,2.913,1.218l-1.891,30.464c-0.896,0.153-1.67,0.649-2.191,1.35L24.683,72.64z M40.58,76.784l1.89-30.448
			c1.506-0.088,2.867-0.67,3.939-1.596l19.25,19.892c-1.066,1.179-1.732,2.725-1.732,4.44c0,0.564,0.092,1.103,0.224,1.627
			l-21.498,7.543C42.178,77.521,41.442,76.995,40.58,76.784 M86.014,41.804l15.157,10.806c-0.104,0.272-0.168,0.561-0.206,0.861
			c-9.86,0.827-18.88,4.633-26.158,10.523c-0.28-0.234-0.574-0.445-0.89-0.63L83.021,42.6c0.231,0.048,0.47,0.075,0.716,0.075
			C84.613,42.675,85.404,42.34,86.014,41.804 M47.379,43.711c0.756-1.003,1.225-2.221,1.311-3.553l31.658-0.222
			c0.184,0.859,0.689,1.597,1.382,2.091l-9.101,20.76c-0.651-0.214-1.335-0.359-2.059-0.359c-1.446,0-2.773,0.473-3.863,1.257
			L47.379,43.711z M108.398,53.421c-0.059-0.422-0.185-0.816-0.369-1.18l13.602-12.375c0.777,0.631,1.754,1.026,2.833,1.026
			c0.354,0,0.695-0.051,1.026-0.128l9.809,22.312c-0.223,0.145-0.425,0.315-0.624,0.488
			C127.328,57.791,118.272,54.11,108.398,53.421 M126.796,40.225c1.018-0.619,1.769-1.62,2.049-2.813l33.241,3.064
			c0.003,1.463,0.493,2.802,1.296,3.9l-21.394,19.258c-0.979-0.892-2.269-1.449-3.699-1.449c-0.6,0-1.168,0.119-1.71,0.298
			L126.796,40.225z M47.407,35.785c8.226-7.102,17.765-12.713,28.209-16.41c0.774,1.371,2.227,2.307,3.913,2.307
			c0.058,0,0.111-0.014,0.169-0.017l2.619,14.383c-1.006,0.453-1.759,1.366-1.98,2.477l-31.704,0.222
			C48.469,37.646,48.042,36.639,47.407,35.785 M86.867,40.678c0.212-0.448,0.339-0.944,0.339-1.472c0-0.638-0.184-1.228-0.485-1.742
			l22.372-20.18c0.773,0.622,1.742,1.009,2.811,1.009c0.536,0,1.042-0.109,1.519-0.281l8.27,14.834
			c-1.052,0.825-1.74,2.094-1.74,3.535c0,0.902,0.272,1.737,0.727,2.442l-13.519,12.298c-0.664-0.583-1.524-0.95-2.477-0.95
			c-1.101,0-2.082,0.481-2.77,1.234L86.867,40.678z M114.659,17.33c0.728-0.566,1.269-1.345,1.543-2.25
			c17.971,2.299,34.263,10.014,47.186,21.469c-0.546,0.742-0.951,1.591-1.15,2.523l-33.302-3.069
			c-0.196-2.311-2.111-4.133-4.472-4.133c-0.543,0-1.057,0.112-1.538,0.287L114.659,17.33z M81.083,21.39
			c1.722-0.635,2.956-2.276,2.956-4.219c0-0.101-0.023-0.197-0.03-0.299c6.719-1.642,13.729-2.533,20.947-2.533
			c0.839,0,1.667,0.04,2.5,0.064c0.093,0.673,0.321,1.301,0.677,1.846L85.778,36.414c-0.573-0.42-1.275-0.677-2.041-0.677
			c-0.014,0-0.027,0.004-0.041,0.004L81.083,21.39z M107.473,12.992c-0.838-0.024-1.673-0.064-2.517-0.064
			c-7.32,0-14.431,0.902-21.247,2.566c-0.666-1.658-2.283-2.833-4.18-2.833c-2.492,0-4.511,2.019-4.511,4.51
			c0,0.304,0.032,0.601,0.089,0.888c-10.613,3.761-20.305,9.47-28.662,16.693c-1.169-1.023-2.681-1.664-4.356-1.664
			c-3.668,0-6.642,2.974-6.642,6.643c0,1.677,0.641,3.191,1.667,4.36c-6.293,7.294-11.432,15.6-15.133,24.65
			c-0.197-0.036-0.399-0.061-0.607-0.061c-1.86,0-3.369,1.508-3.369,3.37c0,1.249,0.689,2.328,1.699,2.909
			c-2.821,8.695-4.363,17.962-4.363,27.584c0,0.815,0.04,1.62,0.062,2.431c-2.637,0.392-4.665,2.643-4.665,5.387
			c0,3.021,2.448,5.47,5.468,5.47c0.043,0,0.082-0.013,0.125-0.013c1.131,7.583,3.21,14.86,6.122,21.703
			c-0.898,0.606-1.488,1.632-1.488,2.796c0,1.861,1.508,3.369,3.369,3.369c0.339,0,0.66-0.064,0.969-0.159
			c3.814,7.382,8.615,14.166,14.241,20.18c-0.935,1.144-1.518,2.587-1.518,4.18c0,3.668,2.973,6.643,6.642,6.643
			c1.786,0,3.398-0.713,4.592-1.858c7.013,5.581,14.874,10.132,23.361,13.428c-0.032,0.188-0.058,0.38-0.058,0.578
			c0,1.861,1.509,3.37,3.369,3.37c1.279,0,2.377-0.72,2.949-1.77c6.908,2.105,14.165,3.403,21.663,3.77
			c0.282,1.577,1.653,2.775,3.311,2.775c1.638,0,2.999-1.171,3.303-2.72c8.321-0.202,16.368-1.523,23.983-3.855
			c1.042,2.307,3.351,3.918,6.045,3.918c3.669,0,6.643-2.975,6.643-6.643c0-0.729-0.146-1.419-0.363-2.075
			c5.098-2.436,9.925-5.347,14.438-8.662c0.592,0.515,1.356,0.839,2.203,0.839c1.861,0,3.369-1.51,3.369-3.369
			c0-0.573-0.156-1.104-0.407-1.574c6.149-5.254,11.597-11.305,16.143-18.02c0.612,0.31,1.295,0.502,2.028,0.502
			c2.491,0,4.511-2.021,4.511-4.512c0-1.512-0.751-2.842-1.892-3.659c6.153-11.392,9.914-24.258,10.598-37.922
			c3.444-0.245,6.17-3.087,6.17-6.595c0-3.614-2.891-6.541-6.484-6.627c-1.791-18.502-9.232-35.369-20.57-48.863
			c1.107-1.187,1.799-2.768,1.799-4.519c0-3.669-2.974-6.644-6.644-6.644c-1.688,0-3.213,0.651-4.384,1.689
			c-13.128-11.643-29.681-19.486-47.94-21.826c-0.053-2.446-2.043-4.413-4.5-4.413C109.684,9.272,107.848,10.879,107.473,12.992"/>
	</defs>
	<linearGradient id="SVGID_2_" gradientUnits="userSpaceOnUse" x1="10.7378" y1="102.0469" x2="200.627" y2="102.0469">
		<stop  offset="0" style="stop-color:#18233E"/>
		<stop  offset="1" style="stop-color:#427ABD"/>
	</linearGradient>
	<use xlink:href="#SVGID_1_"  overflow="visible" fill="url(#SVGID_2_)"/>
	<clipPath id="SVGID_3_">
		<use xlink:href="#SVGID_1_"  overflow="visible"/>
	</clipPath>
	
		<linearGradient id="SVGID_4_" gradientUnits="userSpaceOnUse" x1="0" y1="204.0967" x2="1" y2="204.0967" gradientTransform="matrix(132.3496 132.3496 132.3496 -132.3496 -26974.2246 27046.6777)">
		<stop  offset="0" style="stop-color:#18233E"/>
		<stop  offset="1" style="stop-color:#427ABD"/>
	</linearGradient>
	<polygon clip-path="url(#SVGID_3_)" fill="url(#SVGID_4_)" points="105.683,-85.673 293.402,102.047 105.683,289.767 
		-82.037,102.047 	"/>
</g>
<g>
	<defs>
		<rect id="SVGID_5_" width="487.559" height="204.094"/>
	</defs>
	<clipPath id="SVGID_6_">
		<use xlink:href="#SVGID_5_"  overflow="visible"/>
	</clipPath>
	<path clip-path="url(#SVGID_6_)" fill="#22305D" d="M256.189,29.255c19.538,0,30.529,12.901,30.529,27.644
		c0,14.744-10.991,27.645-30.529,27.645h-9.77v30.101l-0.61,0.613h-15.875l-0.611-0.613V29.869l0.611-0.614H256.189z M246.42,67.343
		h8.548c7.937,0,12.822-3.072,12.822-10.444c0-7.371-4.886-10.443-12.822-10.443h-8.548V67.343z"/>
	<path clip-path="url(#SVGID_6_)" fill="#22305D" d="M327.261,50.757c-2.688-3.687-6.351-5.529-9.402-5.529
		c-4.275,0-6.107,2.457-6.107,6.143c0,9.829,36.025,9.829,36.025,38.088c0,14.743-12.212,27.644-28.698,27.644
		c-12.821,0-24.422-6.758-28.696-19.043l14.044-9.46h1.221c3.052,8.232,8.548,10.689,13.432,10.689c6.107,0,10.38-3.686,10.38-9.829
		c0-14.744-36.023-14.13-36.023-38.088c0-14.13,10.868-23.959,24.424-23.959c10.38,0,17.095,4.301,23.812,13.516l-13.188,9.829
		H327.261z"/>
	<path clip-path="url(#SVGID_6_)" fill="#22305D" d="M385.632,29.255c26.255,0,45.184,19.29,45.184,43.003
		c0,23.713-18.929,43.001-45.184,43.001h-28.697l-0.611-0.613V29.87l0.611-0.615H385.632z M373.421,98.059h12.211
		c15.875,0,26.866-10.443,26.866-25.801c0-15.359-10.991-25.802-26.866-25.802h-12.211V98.059z"/>
	<polygon clip-path="url(#SVGID_6_)" fill="#22305D" points="455.848,29.255 456.458,29.869 456.458,114.646 455.848,115.26 
		439.973,115.26 439.362,114.646 439.362,29.869 439.973,29.255 	"/>
	<path clip-path="url(#SVGID_6_)" fill="#22305D" d="M234.165,136.747c3.257,0,5.369,2.18,5.369,4.819
		c0,2.641-2.112,4.82-5.369,4.82h-2.288v5.654l-0.11,0.108h-2.332l-0.111-0.108v-15.183l0.089-0.111H234.165z M231.876,143.834
		h2.178c1.562,0,2.574-0.882,2.574-2.268c0-1.385-1.012-2.244-2.574-2.244h-2.178V143.834z"/>
	<polygon clip-path="url(#SVGID_6_)" fill="#22305D" points="244.219,136.747 244.328,136.858 244.328,142.579 252.14,142.579 
		252.14,136.858 252.249,136.747 254.604,136.747 254.714,136.858 254.714,152.041 254.604,152.149 252.249,152.149 252.14,152.041 
		252.14,145.153 244.328,145.153 244.328,152.041 244.219,152.149 241.886,152.149 241.776,152.041 241.776,136.858 
		241.886,136.747 	"/>
	<polygon clip-path="url(#SVGID_6_)" fill="#22305D" points="259.376,136.747 259.552,136.858 263.337,142.028 267.122,136.858 
		267.298,136.747 270.048,136.747 270.157,136.858 264.612,144.582 264.612,152.041 264.503,152.149 262.171,152.149 
		262.061,152.041 262.061,144.582 256.516,136.858 256.626,136.747 	"/>
	<path clip-path="url(#SVGID_6_)" fill="#22305D" d="M277.593,140.225c-0.595-0.727-1.122-1.121-1.87-1.121
		c-0.836,0-1.342,0.571-1.342,1.407c0,2.024,6.622,1.958,6.622,7.02c0,2.706-2.199,4.95-5.061,4.95c-2.245,0-4.071-1.21-4.84-3.277
		l2.022-1.475h0.222c0.615,1.451,1.474,2.067,2.596,2.067c1.298,0,2.201-0.901,2.201-2.266c0-2.905-6.623-2.729-6.623-7.02
		c0-2.333,1.847-4.094,4.202-4.094c1.805,0,3.081,0.903,4.049,2.356l-1.958,1.451H277.593z"/>
	<polygon clip-path="url(#SVGID_6_)" fill="#22305D" points="285.908,136.747 286.018,136.858 286.018,152.041 285.908,152.149 
		283.576,152.149 283.466,152.041 283.466,136.858 283.576,136.747 	"/>
	<path clip-path="url(#SVGID_6_)" fill="#22305D" d="M301.926,140.995c-1.432-1.211-3.212-1.893-5.171-1.893
		c-2.904,0-5.236,2.376-5.236,5.346c0,2.972,2.332,5.349,5.236,5.349c1.959,0,3.739-0.684,5.171-1.894l0.109,0.11v2.905
		c-1.43,1.034-3.189,1.561-5.28,1.561c-4.512,0-8.142-3.63-8.142-8.031c0-4.399,3.63-8.03,8.142-8.03
		c2.091,0,3.851,0.528,5.28,1.562v2.905L301.926,140.995z"/>
	<path clip-path="url(#SVGID_6_)" fill="#22305D" d="M312.155,136.748l0.109,0.111l6.007,15.181l-0.111,0.11h-2.706l-0.109-0.11
		l-1.275-3.344h-6.271l-1.299,3.344l-0.109,0.11h-2.706l-0.11-0.11l6.029-15.181l0.108-0.111H312.155z M308.722,146.145h4.424
		l-2.223-5.941L308.722,146.145z"/>
	<polygon clip-path="url(#SVGID_6_)" fill="#22305D" points="322.538,136.747 322.626,136.837 322.626,149.575 329.249,149.575 
		329.337,149.686 329.337,152.062 329.249,152.149 320.161,152.149 320.073,152.062 320.073,136.837 320.161,136.747 	"/>
	<path clip-path="url(#SVGID_6_)" fill="#22305D" d="M343.306,140.225c-0.595-0.727-1.122-1.121-1.87-1.121
		c-0.836,0-1.342,0.571-1.342,1.407c0,2.024,6.622,1.958,6.622,7.02c0,2.706-2.199,4.95-5.061,4.95c-2.245,0-4.071-1.21-4.84-3.277
		l2.022-1.475h0.222c0.615,1.451,1.474,2.067,2.596,2.067c1.298,0,2.201-0.901,2.201-2.266c0-2.905-6.623-2.729-6.623-7.02
		c0-2.333,1.847-4.094,4.202-4.094c1.805,0,3.081,0.903,4.049,2.356l-1.958,1.451H343.306z"/>
	<path clip-path="url(#SVGID_6_)" fill="#22305D" d="M361.919,140.995c-1.432-1.211-3.213-1.893-5.171-1.893
		c-2.904,0-5.237,2.376-5.237,5.346c0,2.972,2.333,5.349,5.237,5.349c1.958,0,3.739-0.684,5.171-1.894l0.108,0.11v2.905
		c-1.429,1.034-3.188,1.561-5.279,1.561c-4.512,0-8.143-3.63-8.143-8.031c0-4.399,3.631-8.03,8.143-8.03
		c2.091,0,3.851,0.528,5.279,1.562v2.905L361.919,140.995z"/>
	<polygon clip-path="url(#SVGID_6_)" fill="#22305D" points="367.373,136.747 367.482,136.858 367.482,152.041 367.373,152.149 
		365.041,152.149 364.931,152.041 364.931,136.858 365.041,136.747 	"/>
	<polygon clip-path="url(#SVGID_6_)" fill="#22305D" points="380.464,136.747 380.573,136.858 380.573,139.213 380.464,139.322 
		373.202,139.322 373.202,142.579 378.594,142.579 378.703,142.688 378.703,145.044 378.594,145.153 373.202,145.153 
		373.202,149.575 380.926,149.575 381.035,149.686 381.035,152.041 380.926,152.149 370.761,152.149 370.65,152.041 370.65,136.858 
		370.761,136.747 	"/>
	<polygon clip-path="url(#SVGID_6_)" fill="#22305D" points="385.963,136.747 386.183,136.858 394.653,147.903 394.653,136.858 
		394.765,136.747 397.117,136.747 397.229,136.858 397.229,152.041 397.117,152.149 394.653,152.149 394.435,152.041 
		385.963,140.994 385.963,152.041 385.853,152.149 383.521,152.149 383.409,152.041 383.409,136.858 383.521,136.747 	"/>
	<path clip-path="url(#SVGID_6_)" fill="#22305D" d="M413.134,140.995c-1.431-1.211-3.213-1.893-5.171-1.893
		c-2.904,0-5.236,2.376-5.236,5.346c0,2.972,2.332,5.349,5.236,5.349c1.958,0,3.74-0.684,5.171-1.894l0.109,0.11v2.905
		c-1.43,1.034-3.189,1.561-5.28,1.561c-4.512,0-8.142-3.63-8.142-8.031c0-4.399,3.63-8.03,8.142-8.03
		c2.091,0,3.851,0.528,5.28,1.562v2.905L413.134,140.995z"/>
	<polygon clip-path="url(#SVGID_6_)" fill="#22305D" points="425.959,136.747 426.068,136.858 426.068,139.213 425.959,139.322 
		418.697,139.322 418.697,142.579 424.089,142.579 424.198,142.688 424.198,145.044 424.089,145.153 418.697,145.153 
		418.697,149.575 426.421,149.575 426.53,149.686 426.53,152.041 426.421,152.149 416.256,152.149 416.146,152.041 416.146,136.858 
		416.256,136.747 	"/>
	<path clip-path="url(#SVGID_6_)" fill="#22305D" d="M434.538,140.225c-0.595-0.727-1.122-1.121-1.87-1.121
		c-0.836,0-1.342,0.571-1.342,1.407c0,2.024,6.622,1.958,6.622,7.02c0,2.706-2.199,4.95-5.061,4.95c-2.245,0-4.071-1.21-4.84-3.277
		l2.022-1.475h0.222c0.615,1.451,1.474,2.067,2.596,2.067c1.298,0,2.201-0.901,2.201-2.266c0-2.905-6.623-2.729-6.623-7.02
		c0-2.333,1.847-4.094,4.202-4.094c1.805,0,3.081,0.903,4.049,2.356l-1.958,1.451H434.538z"/>
	<path clip-path="url(#SVGID_6_)" fill="#22305D" d="M234.605,160.949c4.73,0,8.14,3.432,8.14,7.7s-3.41,7.701-8.14,7.701h-5.171
		l-0.111-0.109v-15.184l0.111-0.108H234.605z M231.876,173.776h2.729c3.102,0,5.28-2.179,5.28-5.127s-2.178-5.127-5.28-5.127h-2.729
		V173.776z"/>
	<path clip-path="url(#SVGID_6_)" fill="#22305D" d="M252.535,160.948l0.11,0.11l6.007,15.182l-0.111,0.111h-2.706l-0.109-0.111
		l-1.276-3.344h-6.271l-1.299,3.344l-0.108,0.111h-2.707l-0.109-0.111l6.028-15.182l0.109-0.11H252.535z M249.103,170.343h4.423
		l-2.224-5.939L249.103,170.343z"/>
	<polygon clip-path="url(#SVGID_6_)" fill="#22305D" points="269.102,160.949 269.211,161.058 269.211,163.413 269.102,163.522 
		264.327,163.522 264.327,176.241 264.216,176.351 261.885,176.351 261.774,176.241 261.774,163.522 256.999,163.522 
		256.89,163.413 256.89,161.058 256.999,160.949 	"/>
	<path clip-path="url(#SVGID_6_)" fill="#22305D" d="M276.031,160.948l0.11,0.11l6.007,15.182l-0.111,0.111h-2.706l-0.109-0.111
		l-1.276-3.344h-6.271l-1.299,3.344l-0.108,0.111h-2.707l-0.109-0.111l6.029-15.182l0.108-0.11H276.031z M272.599,170.343h4.423
		l-2.224-5.939L272.599,170.343z"/>
	<polygon clip-path="url(#SVGID_6_)" fill="#22305D" points="291.166,160.949 291.275,161.058 291.275,176.241 291.166,176.351 
		288.834,176.351 288.724,176.241 288.724,161.058 288.834,160.949 	"/>
	<polygon clip-path="url(#SVGID_6_)" fill="#22305D" points="296.996,160.949 297.216,161.058 305.687,172.104 305.687,161.058 
		305.798,160.949 308.15,160.949 308.262,161.058 308.262,176.241 308.15,176.351 305.687,176.351 305.468,176.241 296.996,165.194 
		296.996,176.241 296.886,176.351 294.554,176.351 294.442,176.241 294.442,161.058 294.554,160.949 	"/>
	<polygon clip-path="url(#SVGID_6_)" fill="#22305D" points="321.131,160.949 321.24,161.058 321.24,163.413 321.131,163.522 
		313.979,163.522 313.979,166.867 319.281,166.867 319.393,166.977 319.393,169.332 319.281,169.44 313.979,169.44 313.979,176.241 
		313.869,176.351 311.536,176.351 311.427,176.241 311.427,161.058 311.536,160.949 	"/>
	<path clip-path="url(#SVGID_6_)" fill="#22305D" d="M327.772,160.948c3.191,0,5.171,1.958,5.171,4.488
		c0,1.76-0.945,3.168-2.464,3.829l5.149,6.975l-0.111,0.111h-3.013l-0.111-0.111l-4.729-6.314h-1.628v6.314l-0.11,0.111h-2.333
		l-0.11-0.111v-15.182l0.11-0.11H327.772z M326.036,167.374h1.736c1.432,0,2.268-0.704,2.268-1.938c0-1.232-0.836-1.914-2.268-1.914
		h-1.736V167.374z"/>
	<path clip-path="url(#SVGID_6_)" fill="#22305D" d="M344.647,160.948l0.11,0.11l6.007,15.182l-0.11,0.111h-2.707l-0.108-0.111
		l-1.276-3.344h-6.272l-1.298,3.344l-0.109,0.111h-2.706l-0.11-0.111l6.029-15.182l0.109-0.11H344.647z M341.216,170.343h4.422
		l-2.223-5.939L341.216,170.343z"/>
	<path clip-path="url(#SVGID_6_)" fill="#22305D" d="M358.199,164.426c-0.595-0.728-1.122-1.123-1.87-1.123
		c-0.836,0-1.342,0.571-1.342,1.407c0,2.026,6.623,1.959,6.623,7.021c0,2.707-2.201,4.951-5.061,4.951
		c-2.246,0-4.072-1.211-4.842-3.279l2.024-1.475h0.221c0.616,1.452,1.474,2.067,2.597,2.067c1.297,0,2.199-0.9,2.199-2.265
		c0-2.905-6.623-2.729-6.623-7.021c0-2.332,1.848-4.092,4.203-4.092c1.805,0,3.08,0.903,4.049,2.354l-1.959,1.453H358.199z"/>
	<polygon clip-path="url(#SVGID_6_)" fill="#22305D" points="374.48,160.949 374.59,161.058 374.59,163.413 374.48,163.522 
		369.706,163.522 369.706,176.241 369.595,176.351 367.262,176.351 367.153,176.241 367.153,163.522 362.377,163.522 
		362.269,163.413 362.269,161.058 362.377,160.949 	"/>
	<path clip-path="url(#SVGID_6_)" fill="#22305D" d="M381.122,160.948c3.191,0,5.172,1.958,5.172,4.488
		c0,1.76-0.946,3.168-2.466,3.829l5.15,6.975l-0.111,0.111h-3.014l-0.11-0.111l-4.73-6.314h-1.628v6.314l-0.11,0.111h-2.332
		l-0.11-0.111v-15.182l0.11-0.11H381.122z M379.385,167.374h1.737c1.432,0,2.268-0.704,2.268-1.938c0-1.232-0.836-1.914-2.268-1.914
		h-1.737V167.374z"/>
	<path clip-path="url(#SVGID_6_)" fill="#22305D" d="M391.969,160.949l0.109,0.108v8.032c0,3.234,1.914,4.906,4.27,4.906
		c2.332,0,4.246-1.672,4.246-4.906v-8.032l0.109-0.108h2.355l0.109,0.108v8.472c0,4.512-3.08,7.151-6.82,7.151
		c-3.741,0-6.821-2.64-6.821-7.151v-8.472l0.11-0.108H391.969z"/>
	<path clip-path="url(#SVGID_6_)" fill="#22305D" d="M419.052,165.195c-1.431-1.211-3.213-1.894-5.171-1.894
		c-2.904,0-5.236,2.377-5.236,5.348c0,2.972,2.332,5.347,5.236,5.347c1.958,0,3.74-0.683,5.171-1.893l0.109,0.111v2.904
		c-1.43,1.032-3.189,1.562-5.28,1.562c-4.512,0-8.142-3.631-8.142-8.031c0-4.399,3.63-8.03,8.142-8.03
		c2.091,0,3.851,0.526,5.28,1.562v2.905L419.052,165.195z"/>
	<polygon clip-path="url(#SVGID_6_)" fill="#22305D" points="433.352,160.949 433.461,161.058 433.461,163.413 433.352,163.522 
		428.577,163.522 428.577,176.241 428.466,176.351 426.133,176.351 426.024,176.241 426.024,163.522 421.248,163.522 
		421.14,163.413 421.14,161.058 421.248,160.949 	"/>
	<path clip-path="url(#SVGID_6_)" fill="#22305D" d="M438.146,160.949l0.109,0.108v8.032c0,3.234,1.914,4.906,4.27,4.906
		c2.332,0,4.247-1.672,4.247-4.906v-8.032l0.109-0.108h2.354l0.109,0.108v8.472c0,4.512-3.079,7.151-6.819,7.151
		s-6.82-2.64-6.82-7.151v-8.472l0.109-0.108H438.146z"/>
	<path clip-path="url(#SVGID_6_)" fill="#22305D" d="M456.778,160.948c3.191,0,5.171,1.958,5.171,4.488
		c0,1.76-0.945,3.168-2.465,3.829l5.15,6.975l-0.111,0.111h-3.014l-0.11-0.111l-4.73-6.314h-1.628v6.314l-0.11,0.111h-2.332
		l-0.111-0.111v-15.182l0.111-0.11H456.778z M455.041,167.374h1.737c1.431,0,2.267-0.704,2.267-1.938
		c0-1.232-0.836-1.914-2.267-1.914h-1.737V167.374z"/>
	<polygon clip-path="url(#SVGID_6_)" fill="#22305D" points="476.25,160.949 476.358,161.058 476.358,163.413 476.25,163.522 
		468.987,163.522 468.987,166.778 474.379,166.778 474.488,166.889 474.488,169.244 474.379,169.353 468.987,169.353 
		468.987,173.776 476.711,173.776 476.82,173.887 476.82,176.241 476.711,176.351 466.546,176.351 466.436,176.241 466.436,161.058 
		466.546,160.949 	"/>
</g>
</svg>
